<svg width="20" height="20" viewBox="0 0 20 20" fill="none" xmlns="http://www.w3.org/2000/svg">
<path d="M16.9616 7.59031L15.9232 8.00392L15.5079 9.03795H16.3386V11.4162H14.781C14.781 11.0026 14.4695 10.6924 14.0541 10.589C13.5349 10.589 13.2234 10.8992 13.1196 11.4162H6.6816C6.6816 10.3822 5.12402 10.3822 5.12402 11.4162H3.56644V9.03795H12.6004L12.185 8.00392L10.8351 7.3835H7.5123V5.72905H10.0044C10.0044 5.31544 10.3159 5.00523 10.6275 4.79842L11.9774 4.178H7.30463C6.6816 4.178 5.85089 5.00523 5.95473 5.72905V7.3835H3.35876C2.73573 7.3835 1.90502 8.21073 2.00886 8.93455V16.2762C2.00886 16.6898 2.32038 16.8966 2.63189 17C7.5123 17 12.4966 17 17.377 17C17.6885 17 18 16.6898 18 16.2762V8.83115C18 8.31413 17.5846 7.69371 17.0655 7.4869L16.9616 7.59031ZM16.3386 15.449H3.4626V13.0707H5.02018C5.02018 14.1047 6.57776 14.1047 6.57776 13.0707H13.0157C13.0157 13.3809 13.2234 13.6911 13.5349 13.7945C14.0541 14.0013 14.6772 13.5877 14.6772 13.0707H16.2347V15.449H16.3386ZM11.1467 5.62565L12.8081 4.90182C13.1196 4.38481 13.2234 3.86779 13.5349 3.35078C13.5349 3.24737 13.6388 3.14397 13.7426 3.04057C13.9503 2.93716 14.2618 3.04057 14.3657 3.24737L15.1964 5.00523C15.7156 5.31544 16.3386 5.52224 16.8578 5.72905C17.2731 5.93586 17.2731 6.34947 16.8578 6.65968L15.1964 7.3835L14.3657 9.14136C14.158 9.45157 13.7426 9.45157 13.5349 9.14136L12.7042 7.3835L10.939 6.55628C10.6275 6.34947 10.6275 5.93586 10.939 5.72905L11.1467 5.62565Z" fill="#fff"/>
</svg>
