<svg width="20" height="20" viewBox="0 0 20 20" fill="none" xmlns="http://www.w3.org/2000/svg">
<path fill-rule="evenodd" clip-rule="evenodd" d="M11.8621 6.84489C11.7625 6.47488 11.2375 6.47488 11.1379 6.84489L10.9008 7.7255C10.4838 9.27418 9.27414 10.4839 7.7255 10.9008L6.84489 11.1379C6.47488 11.2375 6.47488 11.7625 6.84489 11.8621L7.7255 12.0992C9.27414 12.5162 10.4838 13.7259 10.9008 15.2746L11.1379 16.1552C11.2375 16.5251 11.7625 16.5251 11.8621 16.1552L12.0992 15.2745C12.5162 13.7259 13.7259 12.5162 15.2745 12.0992L16.1551 11.8621C16.5251 11.7625 16.5251 11.2375 16.1551 11.1379L15.2745 10.9008C13.7259 10.4839 12.5162 9.27414 12.0992 7.7255L11.8621 6.84489Z" fill="white"/>
<path d="M6.37462 4.17962C6.44351 3.92385 6.8064 3.92385 6.87525 4.17962C7.16351 5.25017 7.99972 6.08639 9.07027 6.37464C9.32606 6.44349 9.32606 6.80638 9.07027 6.87526C7.99972 7.16349 7.16351 7.99974 6.87525 9.07025C6.8064 9.32604 6.44351 9.32604 6.37462 9.07025C6.08639 7.99974 5.25017 7.16349 4.17963 6.87526C3.92385 6.80638 3.92385 6.44349 4.17963 6.37464C5.25017 6.08639 6.08639 5.25017 6.37462 4.17962Z" fill="white"/>
</svg>
